<svg xmlns="http://www.w3.org/2000/svg" viewBox="0 -6 1557.37 112" role="img" aria-label="Direction A: architectural wordmark">
<title>Direction A: architectural wordmark</title>
<g transform="translate(0 -2) scale(1.625)"><path fill="#252824" d="M8 8L56 8L56 14L8 14ZM8 8L15 8L15 58L8 58ZM49 8L56 8L56 58L49 58ZM8 52L56 52L56 58L8 58Z"/><path fill="#A54F32" d="M27 22L37 22L37 52L27 52Z"/></g><g fill="#252824" transform="translate(140 0)"><path d="M26.12 58.28L26.12 54.03L77.99 54.03L77.99 58.28ZM99.1 94.93L110.97 97.99L110.97 100L70.52 100L70.52 97.99L84.18 95.07L46.72 8.96L48.51 8.96L14.93 94.63L29.03 97.99L29.03 100L-1.42 100L-1.42 97.99L10.3 94.4L50.97 -8.21L53.66 -8.21ZM213.96 103.96L213.36 103.96L204.4 100L154.48 100L154.48 95.82L213.36 95.82L202.91 97.54L220.15 70.22L221.87 70.75ZM164.7 -1.79L164.7 100L137.09 100L137.09 97.99L150.52 95L150.52 -1.79L137.09 -4.7L137.09 -6.72L178.13 -6.72L178.13 -4.7ZM340.52 45.67Q340.52 21.57 327.69 9.51Q314.85 -2.54 290.22 -2.54L271.64 -2.54L271.79 -6.72L294.48 -6.72Q313.88 -6.72 327.43 -0.75Q340.97 5.22 348.1 16.64Q355.22 28.06 355.22 44.33Q355.22 62.69 347.35 75.07Q339.48 87.46 325.97 93.73Q312.46 100 295.45 100L271.79 100L271.64 95.82L292.84 95.82Q307.84 95.82 318.51 90.78Q329.18 85.75 334.85 74.7Q340.52 63.66 340.52 45.67ZM252.46 100L252.46 97.99L265.9 95L265.9 -1.79L252.46 -4.7L252.46 -6.72L280.07 -6.72L280.07 100ZM452.99 22.54L450.45 44.33L452.99 65.97L451.42 65.97L443.43 46.79L407.61 45.15L407.61 43.43L443.43 41.49L451.42 22.54ZM475.6 22.31L473.88 22.84L459.4 -4.25L469.85 -2.54L406.72 -2.54L406.72 -6.72L460.67 -6.72L469.93 -10.67L470.45 -10.67ZM460.97 97.54L478.13 70.22L479.93 70.75L472.01 103.96L471.42 103.96L462.39 100L406.72 100L406.72 95.82L471.42 95.82ZM389.33 100L389.33 97.99L402.76 95L402.76 -1.79L389.33 -4.7L389.33 -6.72L416.94 -6.72L416.94 100ZM553.43 42.84Q564.78 42.84 571.34 36.87Q577.91 30.9 577.91 19.33Q577.91 12.39 575 7.39Q572.09 2.39 565.49 -0.34Q558.88 -3.06 547.84 -3.06L529.25 -3.06L529.25 -6.72L553.13 -6.72Q567.84 -6.72 576.46 -3.36Q585.07 0 588.77 5.82Q592.46 11.64 592.46 19.18Q592.46 25.75 588.84 31.42Q585.22 37.09 578.1 40.71Q570.97 44.33 560.37 45L560.37 44.78Q567.24 44.85 571.53 46.34Q575.82 47.84 578.77 51.16Q581.72 54.48 584.48 60.15L596.12 84.03Q599.18 90.22 601.38 93.13Q603.58 96.04 606.19 96.79Q608.81 97.54 612.99 97.54L612.99 100Q605.52 100.6 600.67 100.49Q595.82 100.37 592.61 99.07Q589.4 97.76 587.09 94.89Q584.78 92.01 582.39 87.09L569.4 60.52Q566.72 54.78 564.51 51.75Q562.31 48.73 559.96 47.61Q557.61 46.49 554.18 46.49L529.25 46.49L529.25 42.84ZM540 -6.72L540 95L553.36 97.99L553.36 100L512.39 100L512.39 97.99L525.82 95L525.82 -1.79L512.39 -4.7L512.39 -6.72Z"/><path d="M682.04 38.58L674.28 41.94Q668.01 45.75 664.25 50Q660.48 54.25 658.8 58.99Q657.12 63.73 657.12 69.25Q657.12 76.49 660.29 81.79Q663.46 87.09 669.25 90Q675.03 92.91 682.64 92.91Q690.85 92.91 697.75 89.74Q704.66 86.57 709.81 80.3L711.52 77.99Q715.85 71.87 719.1 62.39Q722.34 52.91 723.69 39.33L710.93 36.79L710.93 34.78L743.99 34.78L743.99 36.79L731.37 39.33Q727.94 53.51 723.43 63.81Q718.91 74.1 713.69 81.19L712.19 83.13Q707.42 89.25 701.75 93.32Q696.07 97.39 689.51 99.44Q682.94 101.49 675.4 101.49Q665.25 101.49 658.31 98.02Q651.37 94.55 647.83 88.47Q644.28 82.39 644.28 74.55Q644.28 67.61 646.93 61.68Q649.58 55.75 655.74 50.56Q661.9 45.37 672.57 40.6L679.81 37.16Q689.43 31.12 693.43 24.89Q697.42 18.66 697.42 11.64Q697.42 3.66 693.65 -0.71Q689.88 -5.07 682.87 -5.07Q675.78 -5.07 671.19 -1.01Q666.6 3.06 666.6 10.07Q666.6 13.96 667.79 17.65Q668.99 21.34 671.78 25.56Q674.58 29.78 679.43 35.22L733.16 95.07L747.64 98.13L747.64 100L721 100L669.28 41.72Q664.13 35.82 661.3 31.34Q658.46 26.87 657.38 23.02Q656.3 19.18 656.3 15.3Q656.3 8.66 659.4 3.36Q662.49 -1.94 668.5 -5.07Q674.51 -8.21 683.24 -8.21Q691.3 -8.21 696.6 -5.56Q701.9 -2.91 704.58 1.49Q707.27 5.9 707.27 11.19Q707.27 15.07 705.93 18.62Q704.58 22.16 701.63 25.45Q698.69 28.73 693.87 31.94Q689.06 35.15 682.04 38.58Z"/><path d="M842.52 22.54L839.99 44.33L842.52 65.97L840.96 65.97L832.97 46.79L797.15 45.15L797.15 43.43L832.97 41.49L840.96 22.54ZM865.13 22.31L863.42 22.84L848.94 -4.25L859.39 -2.54L796.25 -2.54L796.25 -6.72L850.21 -6.72L859.46 -10.67L859.99 -10.67ZM850.51 97.54L867.67 70.22L869.46 70.75L861.55 103.96L860.96 103.96L851.93 100L796.25 100L796.25 95.82L860.96 95.82ZM778.87 100L778.87 97.99L792.3 95L792.3 -1.79L778.87 -4.7L778.87 -6.72L806.48 -6.72L806.48 100ZM1032.97 95L1046.33 97.99L1046.33 100L1005.06 100L1005.06 97.99L1018.49 95L1011.4 0.3L1012.45 0.45L969.91 101.49L967.52 101.49L922.45 2.69L923.49 2.46L917.37 95L932.07 97.99L932.07 100L899.61 100L899.61 97.99L912.97 95L919.31 -0.15L905.58 -4.7L905.58 -6.72L933.34 -6.72L975.21 85.07L972.45 85.07L1010.88 -6.72L1040.13 -6.72L1040.13 -4.7L1025.28 -1.72ZM1092.15 -3.06L1098.72 -6.72L1122.22 -6.72Q1133.87 -6.72 1141.1 -3.54Q1148.34 -0.37 1151.66 5.11Q1154.99 10.6 1154.99 17.69Q1154.99 28.36 1147.3 34.85Q1139.61 41.34 1127.15 42.84L1129.24 41.72Q1145.43 42.99 1154.28 50.9Q1163.12 58.81 1163.12 70.07Q1163.12 78.28 1158.98 85.11Q1154.84 91.94 1145.47 95.97Q1136.1 100 1120.36 100L1098.79 100L1093.87 96.34L1118.57 96.34Q1128.12 96.34 1134.76 93.51Q1141.4 90.67 1144.87 84.89Q1148.34 79.1 1148.34 70.22Q1148.34 62.76 1145.43 57.09Q1142.52 51.42 1136.44 48.25Q1130.36 45.07 1120.73 45.07L1093.87 45.07L1092.15 41.34L1119.46 41.34Q1129.69 41.34 1135.47 35.71Q1141.25 30.07 1141.25 18.88Q1141.25 12.24 1138.42 7.31Q1135.58 2.39 1129.57 -0.34Q1123.57 -3.06 1113.79 -3.06ZM1077.3 100L1077.3 97.99L1090.73 95L1090.73 -1.79L1077.3 -4.7L1077.3 -6.72L1104.91 -6.72L1104.91 100ZM1260.51 22.54L1257.97 44.33L1260.51 65.97L1258.94 65.97L1250.96 46.79L1215.13 45.15L1215.13 43.43L1250.96 41.49L1258.94 22.54ZM1283.12 22.31L1281.4 22.84L1266.93 -4.25L1277.37 -2.54L1214.24 -2.54L1214.24 -6.72L1268.19 -6.72L1277.45 -10.67L1277.97 -10.67ZM1268.49 97.54L1285.66 70.22L1287.45 70.75L1279.54 103.96L1278.94 103.96L1269.91 100L1214.24 100L1214.24 95.82L1278.94 95.82ZM1196.85 100L1196.85 97.99L1210.28 95L1210.28 -1.79L1196.85 -4.7L1196.85 -6.72L1224.46 -6.72L1224.46 100ZM1360.96 42.84Q1372.3 42.84 1378.87 36.87Q1385.43 30.9 1385.43 19.33Q1385.43 12.39 1382.52 7.39Q1379.61 2.39 1373.01 -0.34Q1366.4 -3.06 1355.36 -3.06L1336.78 -3.06L1336.78 -6.72L1360.66 -6.72Q1375.36 -6.72 1383.98 -3.36Q1392.6 0 1396.29 5.82Q1399.99 11.64 1399.99 19.18Q1399.99 25.75 1396.37 31.42Q1392.75 37.09 1385.62 40.71Q1378.49 44.33 1367.9 45L1367.9 44.78Q1374.76 44.85 1379.05 46.34Q1383.34 47.84 1386.29 51.16Q1389.24 54.48 1392 60.15L1403.64 84.03Q1406.7 90.22 1408.9 93.13Q1411.1 96.04 1413.72 96.79Q1416.33 97.54 1420.51 97.54L1420.51 100Q1413.04 100.6 1408.19 100.49Q1403.34 100.37 1400.13 99.07Q1396.93 97.76 1394.61 94.89Q1392.3 92.01 1389.91 87.09L1376.93 60.52Q1374.24 54.78 1372.04 51.75Q1369.84 48.73 1367.49 47.61Q1365.13 46.49 1361.7 46.49L1336.78 46.49L1336.78 42.84ZM1347.52 -6.72L1347.52 95L1360.88 97.99L1360.88 100L1319.91 100L1319.91 97.99L1333.34 95L1333.34 -1.79L1319.91 -4.7L1319.91 -6.72Z"/></g>
</svg>
